<?xml version="1.0" encoding="UTF-8"?>
<svg version="1.1" xmlns="http://www.w3.org/2000/svg" width="192" height="192">
<path d="M0 0 C63.36 0 126.72 0 192 0 C192 63.36 192 126.72 192 192 C128.64 192 65.28 192 0 192 C0 128.64 0 65.28 0 0 Z " fill="#2A2A2A" transform="translate(0,0)"/>
<path d="M0 0 C5.28 0 10.56 0 16 0 C18.62616979 5.14729279 21.14847246 10.34186905 23.625 15.5625 C23.92607666 16.18713135 24.22715332 16.8117627 24.53735352 17.45532227 C26.47116734 21.56043583 27.78024101 25.61713717 29 30 C29.66025767 31.5012428 30.36116589 32.98621519 31.125 34.4375 C31.47820313 35.11683594 31.83140625 35.79617187 32.1953125 36.49609375 C32.46085937 36.99238281 32.72640625 37.48867187 33 38 C36.66386679 31.96631299 39.28960746 25.83094168 41.73828125 19.21875 C43.21841074 15.44281595 44.97812683 11.89113054 46.88671875 8.31640625 C48.16892485 5.64851777 49.06396146 2.80811561 50 0 C59.9 0 69.8 0 80 0 C79.67 0.99 79.34 1.98 79 3 C78.34 3 77.68 3 77 3 C80.83267698 10.76476057 84.68691463 18.48688356 89 26 C91.91382472 22.41727841 93.98347909 18.50482084 96.125 14.4375 C96.66447266 13.42913086 96.66447266 13.42913086 97.21484375 12.40039062 C98.68507962 9.62786718 100.00578222 6.98265334 101 4 C99.68 3.67 98.36 3.34 97 3 C97 2.01 97 1.02 97 0 C101.95 0 106.9 0 112 0 C112 0.99 112 1.98 112 3 C111.25878906 3.18433594 110.51757812 3.36867188 109.75390625 3.55859375 C105.98913863 5.52908914 104.73274909 8.38572616 102.9375 12.0625 C102.59460938 12.73482666 102.25171875 13.40715332 101.8984375 14.09985352 C99.42631884 18.99180506 97.12710814 23.94811816 95 29 C94.34 29 93.68 29 93 29 C92.85499356 32.60374463 92.76603237 36.20674242 92.6875 39.8125 C92.64560547 40.83666016 92.60371094 41.86082031 92.56054688 42.91601562 C92.5149576 45.6969611 92.5091687 48.26121944 93 51 C95.35062334 53.16448977 95.35062334 53.16448977 98 54 C98 54.66 98 55.32 98 56 C91.4 56 84.8 56 78 56 C78.33 55.01 78.66 54.02 79 53 C81.0625 52.3125 81.0625 52.3125 83 52 C83.1392346 39.34375127 83.02147842 30.26953607 75 20 C74.06040161 18.23089241 73.16249874 16.43886023 72.3125 14.625 C69.75627056 9.40207618 69.75627056 9.40207618 66 5 C62.86136296 4.11406002 62.86136296 4.11406002 60 4 C60.06566162 4.57145752 60.13132324 5.14291504 60.19897461 5.73168945 C61.1787734 15.1994789 61.33942459 24.67902463 61.5625 34.1875 C61.60579049 35.91993014 61.64940774 37.65235214 61.69335938 39.38476562 C61.79933871 43.58975951 61.90090133 47.79483857 62 52 C62.61875 52.144375 63.2375 52.28875 63.875 52.4375 C66 53 66 53 68 54 C68 54.66 68 55.32 68 56 C61.73 56 55.46 56 49 56 C49.33 55.01 49.66 54.02 50 53 C50.66 52.67 51.32 52.34 52 52 C52.62228403 33.33441763 52.62228403 33.33441763 50 15 C48.1999795 18.85031845 46.41150048 22.7058921 44.625 26.5625 C44.11710937 27.64853516 43.60921875 28.73457031 43.0859375 29.85351562 C40.06828628 36.26699066 40.06828628 36.26699066 37.8125 42.96875 C37.00845037 45.96847361 35.93654572 48.26643495 34.375 50.9375 C33.70597656 52.09572266 33.70597656 52.09572266 33.0234375 53.27734375 C32.68570313 53.84582031 32.34796875 54.41429687 32 55 C30.16601562 54.86694336 30.16601562 54.86694336 28 54 C26.59960938 51.47485352 26.59960938 51.47485352 25.34375 48.12890625 C24.87839844 46.91396484 24.41304687 45.69902344 23.93359375 44.44726562 C23.45526571 43.15251487 22.97740385 41.85759181 22.5 40.5625 C22.02359541 39.30218153 21.54574518 38.0424085 21.06640625 36.78320312 C20.13544446 34.32943541 19.21083011 31.87324889 18.29296875 29.41455078 C16.86092909 25.63273304 15.34409688 21.89241796 13.77929688 18.16381836 C12.92738517 15.79837556 12.43636213 13.47299008 12 11 C11.34 11 10.68 11 10 11 C10 24.53 10 38.06 10 52 C11.32 52.66 12.64 53.32 14 54 C14 54.66 14 55.32 14 56 C8.72 56 3.44 56 -2 56 C-1.67 55.01 -1.34 54.02 -1 53 C1.0625 52.3125 1.0625 52.3125 3 52 C2.98839844 51.27401611 2.97679687 50.54803223 2.96484375 49.80004883 C2.88046669 40.06278542 3.40557833 30.40270378 4 20.6875 C4.09670407 19.06056764 4.19306043 17.43361456 4.2890625 15.80664062 C4.52204466 11.87084418 4.75969245 7.93535569 5 4 C3.35 3.67 1.7 3.34 0 3 C0 2.01 0 1.02 0 0 Z " fill="#B9A271" transform="translate(17,67)"/>
<path d="M0 0 C13.2 0 26.4 0 40 0 C40.495 6.435 40.495 6.435 41 13 C38 12 38 12 37 10.0625 C36.505 9.0415625 36.505 9.0415625 36 8 C32.96474514 5.97649676 31.80573798 5.67875982 28.3125 5.375 C27.10013672 5.26285156 27.10013672 5.26285156 25.86328125 5.1484375 C25.24839844 5.09945312 24.63351563 5.05046875 24 5 C24.04157852 11.49664414 24.11381417 17.99242527 24.20751953 24.48852539 C24.23577019 26.69905811 24.25696425 28.90969262 24.27099609 31.12036133 C24.29236869 34.29561634 24.33899031 37.4696422 24.390625 40.64453125 C24.39185364 41.63524124 24.39308228 42.62595123 24.39434814 43.64668274 C24.41406677 44.56741074 24.4337854 45.48813873 24.45410156 46.43676758 C24.46298401 47.2472908 24.47186646 48.05781403 24.48101807 48.89289856 C25.18153509 51.73704464 26.64112029 52.39236368 29 54 C29 54.66 29 55.32 29 56 C22.73 56 16.46 56 10 56 C10.33 55.01 10.66 54.02 11 53 C12.98 52.505 12.98 52.505 15 52 C15 36.49 15 20.98 15 5 C5.40773784 5.80358615 5.40773784 5.80358615 2.5 10.125 C2.005 11.07375 1.51 12.0225 1 13 C0.34 13 -0.32 13 -1 13 C-0.67 8.71 -0.34 4.42 0 0 Z " fill="#BAA371" transform="translate(133,67)"/>
<path d="M0 0 C13.2 0 26.4 0 40 0 C40.495 6.435 40.495 6.435 41 13 C40.01 12.67 39.02 12.34 38 12 C37.505 10.515 37.505 10.515 37 9 C37.66 9 38.32 9 39 9 C39 6.36 39 3.72 39 1 C26.13 1.33 13.26 1.66 0 2 C0 1.34 0 0.68 0 0 Z " fill="#97845B" transform="translate(133,67)"/>
<path d="M0 0 C0.66 0 1.32 0 2 0 C2 0.66 2 1.32 2 2 C7.28 2 12.56 2 18 2 C18 2.33 18 2.66 18 3 C11.73 3 5.46 3 -1 3 C-0.67 2.01 -0.34 1.02 0 0 Z " fill="#847861" transform="translate(144,120)"/>
<path d="M0 0 C1.85776765 3.13498292 2.20140476 5.37471432 2 9 C1.01 8.67 0.02 8.34 -1 8 C-1.33 7.01 -1.66 6.02 -2 5 C-1.34 5 -0.68 5 0 5 C0 3.35 0 1.7 0 0 Z " fill="#A9956A" transform="translate(172,71)"/>
</svg>
